<mxfile host="app.diagrams.net" modified="2024-01-10T09:23:17.708Z" agent="Mozilla/5.0 (Macintosh; Intel Mac OS X 10_15_7) AppleWebKit/537.36 (KHTML, like Gecko) Chrome/120.0.0.0 Safari/537.36" etag="AkQBEMMndSoMFua5rldu" version="22.1.18" type="github">
  <diagram name="Page-1" id="P8yfDjKPGGIgUUBSz5ng">
    <mxGraphModel dx="763" dy="452" grid="1" gridSize="10" guides="1" tooltips="1" connect="1" arrows="1" fold="1" page="1" pageScale="1" pageWidth="827" pageHeight="1169" math="0" shadow="0">
      <root>
        <mxCell id="0" />
        <mxCell id="1" parent="0" />
        <mxCell id="xtMfBei_R9dqipnt-4u9-3" value="" style="shape=image;verticalLabelPosition=bottom;verticalAlign=top;imageAspect=0;aspect=fixed;image=data:image/svg+xml,PHN2ZyB4bWxucz0iaHR0cDovL3d3dy53My5vcmcvMjAwMC9zdmciIHZlcnNpb249IjEuMSIgaGVpZ2h0PSI1NTUuNTkwNTUxMTgxMTAyNSIgd2lkdGg9IjEwNTguMjY3NzE2NTM1NDMzMiIgdmlld0JveD0iMCAwIDEwNTguMjY3NzE2NTM1NDMzMiA1NTUuNTkwNTUxMTgxMTAyNSI+JiN4YTsgPGRlZnM+JiN4YTsgIDxwYXR0ZXJuIHdpZHRoPSIyLjUiIHBhdHRlcm5Vbml0cz0idXNlclNwYWNlT25Vc2UiIGlkPSJzbWFsbC1waW4tcGF0dGVybiIgaGVpZ2h0PSI0LjYiPiYjeGE7ICAgPHBhdGggc3Ryb2tlLXdpZHRoPSIxLjYxIiBpZD0ic3ZnXzEiIGZpbGw9IiNmNWY5ZjAiIGQ9Im0xLjQsMS4zMmMwLC0wLjE0IC0wLjA1LC0wLjI3IC0wLjE1LC0wLjM3Yy0wLjEsLTAuMSAtMC4yMywtMC4xNSAtMC4zNywtMC4xNWwtMC40MywwYy0wLjE0LDAgLTAuMjcsMC4wNSAtMC4zNywwLjE1Yy0wLjEsMC4xIC0wLjE2LDAuMjMgLTAuMTYsMC4zN2wwLDEuODFsMS40NywwbDAuMDEsLTEuODF6Ii8+JiN4YTsgIDwvcGF0dGVybj4mI3hhOyA8L2RlZnM+JiN4YTsgJiN4YTsgJiN4YTsgJiN4YTsgJiN4YTsgJiN4YTsgJiN4YTsgJiN4YTsgJiN4YTsgJiN4YTsgJiN4YTsgPGcgY2xhc3M9ImxheWVyIj4mI3hhOyAgPHRpdGxlPkxheWVyIDE8L3RpdGxlPiYjeGE7ICA8ZyB0cmFuc2Zvcm09InJvdGF0ZSg5MCAyMjYuNzIgNDUyLjA1KSIgaWQ9InN2Z18yIj4mI3hhOyAgIDxnIHRyYW5zZm9ybT0ibWF0cml4KDQuMTM3MiAwIDAgNC4xMzcyIC0xNjYuMDkgLTI2Ni41NikiIGlkPSJzdmdfNCI+JiN4YTsgICAgPGcgaWQ9InN2Z181IiBmaWxsLXJ1bGU9ImV2ZW5vZGQiPiYjeGE7ICAgICA8cGF0aCBzdHJva2U9IiM0ZDRkNGQiIGlkPSJzdmdfNiIgZmlsbD0iIzMzMyIgZD0ibTYuNTksMTAuNjRjLTQuMTksMCAtNy41NiwzLjM3IC03LjU2LDcuNTZsMCwxODFjMCw0LjE5IDMuMzcsNy41NiA3LjU2LDcuNTZsOTEuNSwwYzQuMTksMCA3LjU2LC0zLjM3IDcuNTYsLTcuNTZsMCwtMTgxYzAsLTQuMTkgLTMuMzcsLTcuNTYgLTcuNTYsLTcuNTZsLTkxLjUsMHptMS4xMSwyLjVhNi4yNCw2LjI0IDAgMCAxIDYuMjQsNi4yNGE2LjI0LDYuMjQgMCAwIDEgLTYuMjQsNi4yNGE2LjI0LDYuMjQgMCAwIDEgLTYuMjQsLTYuMjRhNi4yNCw2LjI0IDAgMCAxIDYuMjQsLTYuMjR6bTg4LjksMC4yMmE2LjI0LDYuMjQgMCAwIDEgNi4yNCw2LjI0YTYuMjQsNi4yNCAwIDAgMSAtNi4yNCw2LjI0YTYuMjQsNi4yNCAwIDAgMSAtNi4yNCwtNi4yNGE2LjI0LDYuMjQgMCAwIDEgNi4yNCwtNi4yNHptLTg4LjksMTc2YTYuMjQsNi4yNCAwIDAgMSAwLjE0LDBhNi4yNCw2LjI0IDAgMCAxIDYuMjQsNi4yNGE2LjI0LDYuMjQgMCAwIDEgLTYuMjQsNi4yNGE2LjI0LDYuMjQgMCAwIDEgLTYuMjQsLTYuMjRhNi4yNCw2LjI0IDAgMCAxIDYuMSwtNi4yNHptODguNywwLjIxYTYuMjQsNi4yNCAwIDAgMSAwLDBhNi4yNCw2LjI0IDAgMCAxIDAuMTQsMGE2LjI0LDYuMjQgMCAwIDEgNi4yNCw2LjI0YTYuMjQsNi4yNCAwIDAgMSAtNi4yNCw2LjI0YTYuMjQsNi4yNCAwIDAgMSAtNi4yNCwtNi4yNGE2LjI0LDYuMjQgMCAwIDEgNi4xLC02LjI0eiIvPiYjeGE7ICAgICA8cmVjdCB5PSIzNS40NCIgeD0iMTkuMDMiIHdpZHRoPSI2NS42IiBpZD0ic3ZnXzciIGhlaWdodD0iNzMuMyIgZmlsbD0iIzFhMWExYSIvPiYjeGE7ICAgICA8ZyBpZD0ic3ZnXzgiIGZpbGw9IiNlY2VjZWMiPiYjeGE7ICAgICAgPHJlY3QgeT0iMTUzLjY0IiB4PSIxOC4zMyIgd2lkdGg9IjcuMjEiIGlkPSJzdmdfOSIgaGVpZ2h0PSIxMS41Ii8+JiN4YTsgICAgICA8cmVjdCB5PSIxNDkuNjQiIHg9IjM4LjgzIiB3aWR0aD0iNi41OSIgaWQ9InN2Z18xMCIgaGVpZ2h0PSIzLjA3Ii8+JiN4YTsgICAgICA8cmVjdCB5PSIxNTcuNjQiIHg9IjM5LjAzIiB3aWR0aD0iNi41OSIgaWQ9InN2Z18xMSIgaGVpZ2h0PSIzLjA3Ii8+JiN4YTsgICAgICA8cmVjdCB5PSIxNjYuNjQiIHg9IjM5LjIzIiB3aWR0aD0iNi41OSIgaWQ9InN2Z18xMiIgaGVpZ2h0PSIzLjA3Ii8+JiN4YTsgICAgIDwvZz4mI3hhOyAgICAgPHJlY3QgeT0iMTQ3LjY0IiB4PSIyNS4zMyIgd2lkdGg9IjE0IiBpZD0ic3ZnXzEzIiBoZWlnaHQ9IjI0LjciIGZpbGw9IiM0ZDRkNGQiLz4mI3hhOyAgICA8L2c+JiN4YTsgICAgPGcgdHJhbnNmb3JtPSJ0cmFuc2xhdGUoLTIgMCkiIHN0cm9rZS13aWR0aD0iMS4yNCIgaWQ9InN2Z18xNCI+JiN4YTsgICAgIDxyZWN0IHk9IjE4Ny42NCIgeD0iNzYuNjMiIHdpZHRoPSIxMS4xIiBpZD0ic3ZnXzE1IiBoZWlnaHQ9IjkuOTYiIGZpbGw9IiNjZWNjY2IiLz4mI3hhOyAgICAgPGNpcmNsZSByPSIzLjQ4IiBpZD0ic3ZnXzE2IiBmaWxsPSIjZmZkYzhlIiBjeT0iMTkyLjY0IiBjeD0iODIuMjMiLz4mI3hhOyAgICAgPGcgaWQ9InN2Z18xNyIgZmlsbD0iI2NlY2NjYiI+JiN4YTsgICAgICA8cGF0aCBpZD0ic3ZnXzE4IiBkPSJtNzkuNzMsMjAwLjY0bC0xLjM0LDBsMCwxLjY0YzAsMC43MyAwLjU5LDEuMzMgMS4zMywxLjMzbDAuMDEsMGwwLC0yLjk3eiIvPiYjeGE7ICAgICAgPHBhdGggaWQ9InN2Z18xOSIgZD0ibTc5LjczLDE4NS42NGwtMS4zNCwwbDAsLTEuNjRjMCwtMC43MyAwLjU5LC0xLjMzIDEuMzMsLTEuMzNsMC4wMSwwbDAsMi45N3oiLz4mI3hhOyAgICAgIDxyZWN0IHk9IjIwMC42NCIgeD0iODAuMDMiIHdpZHRoPSI1LjIzIiBpZD0ic3ZnXzIwIiBoZWlnaHQ9IjIuNTkiLz4mI3hhOyAgICAgIDxyZWN0IHk9IjE4My42NCIgeD0iODAuMDMiIHdpZHRoPSI1LjIzIiBpZD0ic3ZnXzIxIiBoZWlnaHQ9IjIuNTkiLz4mI3hhOyAgICAgIDxwYXRoIGlkPSJzdmdfMjIiIGQ9Im04My41MywxODUuNjRjMC4wNiwwIDAuMTIsMC4wMiAwLjE3LDAuMDdjMC4wNCwwLjA0IDAuMDYsMC4xIDAuMDYsMC4xN2MwLDAuMTMgMC4wNiwwLjI2IDAuMTUsMC4zNWMwLjEsMC4xIDAuMjMsMC4xNSAwLjM2LDAuMTVsMC4wMiwwYzAuMTUsMCAwLjI4LC0wLjA1IDAuMzgsLTAuMTVzMC4xNiwtMC4yNCAwLjE2LC0wLjM4bDAsLTAuNTZsMi4xNiwwbDAsMy4wOWwtMS42OSwwbDAsMC43NGwtMi4xNiwwbDAsLTAuMzlsLTEuODcsMGwwLDAuMzlsLTIuMTYsMGwwLC0wLjc0bC0xLjY5LDBsMCwtMy4wOWwyLjE2LDBsMCwwLjU2YzAsMC4xNCAwLjA1LDAuMjggMC4xNSwwLjM4czAuMjMsMC4xNSAwLjM4LDAuMTVsMC4wMiwwYzAuMTQsMCAwLjI2LC0wLjA1IDAuMzYsLTAuMTVjMC4wOSwtMC4wOSAwLjE1LC0wLjIyIDAuMTUsLTAuMzVjMCwtMC4wNyAwLjAyLC0wLjEzIDAuMDcsLTAuMTdjMC4wNCwtMC4wNSAwLjEsLTAuMDcgMC4xNiwtMC4wN2wyLjY2LDB6Ii8+JiN4YTsgICAgICA8cGF0aCBpZD0ic3ZnXzIzIiBkPSJtODAuODMsMjAwLjY0Yy0wLjA2LDAgLTAuMTIsLTAuMDIgLTAuMTcsLTAuMDdjLTAuMDQsLTAuMDQgLTAuMDcsLTAuMSAtMC4wNywtMC4xN2MwLC0wLjEzIC0wLjA1LC0wLjI2IC0wLjE0LC0wLjM1Yy0wLjEsLTAuMSAtMC4yMywtMC4xNSAtMC4zNiwtMC4xNWwtMC4wMywwYy0wLjE0LDAgLTAuMjcsMC4wNSAtMC4zNywwLjE1Yy0wLjEsMC4xIC0wLjE2LDAuMjQgLTAuMTYsMC4zOGwwLDAuNTZsLTIuMTYsMGwwLC0zLjA5bDEuNjksMGwwLC0wLjc0bDIuMTYsMGwwLDAuMzlsMS44NywwbDAsLTAuMzlsMi4xNiwwbDAsMC43NGwxLjY5LDBsMCwzLjA5bC0yLjE2LDBsMCwtMC41NmMwLC0wLjE0IC0wLjA1LC0wLjI4IC0wLjE1LC0wLjM4Yy0wLjEsLTAuMSAtMC4yNCwtMC4xNSAtMC4zOCwtMC4xNWwtMC4wMiwwYy0wLjE0LDAgLTAuMjYsMC4wNSAtMC4zNiwwLjE1cy0wLjE1LDAuMjIgLTAuMTUsMC4zNWMwLDAuMDcgLTAuMDIsMC4xMyAtMC4wNywwLjE3Yy0wLjA0LDAuMDUgLTAuMSwwLjA3IC0wLjE2LDAuMDdsLTIuNjYsMHoiLz4mI3hhOyAgICAgPC9nPiYjeGE7ICAgIDwvZz4mI3hhOyAgICA8ZyB0cmFuc2Zvcm09InRyYW5zbGF0ZSgyIDIpIiBzdHJva2Utd2lkdGg9IjEuMjQiIGlkPSJzdmdfMjQiPiYjeGE7ICAgICA8cmVjdCB5PSIxODcuNjQiIHg9IjE2LjczIiB3aWR0aD0iMTEuMSIgaWQ9InN2Z18yNSIgaGVpZ2h0PSI5Ljk2IiBmaWxsPSIjY2VjY2NiIi8+JiN4YTsgICAgIDxjaXJjbGUgcj0iMy40OCIgaWQ9InN2Z18yNiIgZmlsbD0iI2ZmZGM4ZSIgY3k9IjE5Mi42NCIgY3g9IjIyLjMzIi8+JiN4YTsgICAgIDxnIGlkPSJzdmdfMjciIGZpbGw9IiNjZWNjY2IiPiYjeGE7ICAgICAgPHBhdGggaWQ9InN2Z18yOCIgZD0ibTE5LjgzLDE5OS42NGwtMS4zNCwwbDAsMS42NGMwLDAuNzMgMC41OSwxLjMzIDEuMzMsMS4zM2wwLjAxLDBsMCwtMi45N3oiLz4mI3hhOyAgICAgIDxwYXRoIGlkPSJzdmdfMjkiIGQ9Im0xOS44MywxODUuNjRsLTEuMzQsMGwwLC0xLjY0YzAsLTAuNzMgMC41OSwtMS4zMyAxLjMzLC0xLjMzbDAuMDEsMGwwLDIuOTd6Ii8+JiN4YTsgICAgICA8cmVjdCB5PSIxOTkuNjQiIHg9IjIwLjAzIiB3aWR0aD0iNS4yMyIgaWQ9InN2Z18zMCIgaGVpZ2h0PSIyLjU5Ii8+JiN4YTsgICAgICA8cmVjdCB5PSIxODIuNjQiIHg9IjIwLjAzIiB3aWR0aD0iNS4yMyIgaWQ9InN2Z18zMSIgaGVpZ2h0PSIyLjU5Ii8+JiN4YTsgICAgICA8cGF0aCBpZD0ic3ZnXzMyIiBkPSJtMjMuNTMsMTg1LjY0YzAuMDYsMCAwLjEyLDAuMDIgMC4xNywwLjA3YzAuMDQsMC4wNCAwLjA2LDAuMSAwLjA2LDAuMTdjMCwwLjEzIDAuMDYsMC4yNiAwLjE1LDAuMzVjMC4xLDAuMSAwLjIzLDAuMTUgMC4zNiwwLjE1bDAuMDIsMGMwLjE1LDAgMC4yOCwtMC4wNSAwLjM4LC0wLjE1czAuMTYsLTAuMjQgMC4xNiwtMC4zOGwwLC0wLjU2bDIuMTYsMGwwLDMuMDlsLTEuNjksMGwwLDAuNzRsLTIuMTYsMGwwLC0wLjM5bC0xLjg3LDBsMCwwLjM5bC0yLjE2LDBsMCwtMC43NGwtMS42OSwwbDAsLTMuMDlsMi4xNiwwbDAsMC41NmMwLDAuMTQgMC4wNSwwLjI4IDAuMTUsMC4zOHMwLjIzLDAuMTUgMC4zOCwwLjE1bDAuMDIsMGMwLjE0LDAgMC4yNiwtMC4wNSAwLjM2LC0wLjE1YzAuMDksLTAuMDkgMC4xNSwtMC4yMiAwLjE1LC0wLjM1YzAsLTAuMDcgMC4wMiwtMC4xMyAwLjA3LC0wLjE3YzAuMDQsLTAuMDUgMC4xLC0wLjA3IDAuMTYsLTAuMDdsMi42NiwweiIvPiYjeGE7ICAgICAgPHBhdGggaWQ9InN2Z18zMyIgZD0ibTIwLjkzLDE5OS42NGMtMC4wNiwwIC0wLjEyLC0wLjAyIC0wLjE3LC0wLjA3Yy0wLjA0LC0wLjA0IC0wLjA3LC0wLjEgLTAuMDcsLTAuMTdjMCwtMC4xMyAtMC4wNSwtMC4yNiAtMC4xNCwtMC4zNWMtMC4xLC0wLjEgLTAuMjMsLTAuMTUgLTAuMzYsLTAuMTVsLTAuMDMsMGMtMC4xNCwwIC0wLjI3LDAuMDUgLTAuMzcsMC4xNWMtMC4xLDAuMSAtMC4xNiwwLjI0IC0wLjE2LDAuMzhsMCwwLjU2bC0yLjE2LDBsMCwtMy4wOWwxLjY5LDBsMCwtMC43NGwyLjE2LDBsMCwwLjM5bDEuODcsMGwwLC0wLjM5bDIuMTYsMGwwLDAuNzRsMS42OSwwbDAsMy4wOWwtMi4xNiwwbDAsLTAuNTZjMCwtMC4xNCAtMC4wNSwtMC4yOCAtMC4xNSwtMC4zOGMtMC4xLC0wLjEgLTAuMjQsLTAuMTUgLTAuMzgsLTAuMTVsLTAuMDIsMGMtMC4xNCwwIC0wLjI2LDAuMDUgLTAuMzYsMC4xNXMtMC4xNSwwLjIyIC0wLjE1LDAuMzVjMCwwLjA3IC0wLjAyLDAuMTMgLTAuMDcsMC4xN2MtMC4wNCwwLjA1IC0wLjEsMC4wNyAtMC4xNiwwLjA3bC0yLjY2LDB6Ii8+JiN4YTsgICAgIDwvZz4mI3hhOyAgICA8L2c+JiN4YTsgICAgPHBhdGggc3Ryb2tlLXdpZHRoPSIxLjI2IiBpZD0ic3ZnXzM0IiBmaWxsPSIjY2VjY2NiIiBkPSJtNjUuNDMsMjA3LjY0bDEuMDYsMi4yNGMwLjA3LDAuMTQgMC4wNywwLjMgMC4wMiwwLjQ1Yy0wLjA1LDAuMTUgLTAuMTYsMC4yNiAtMC4zLDAuMzNjLTAuMTQsMC4wNyAtMC4zLDAuMDcgLTAuNDUsMC4wMmMtMC4xNCwtMC4wNSAtMC4yNiwtMC4xNiAtMC4zMywtMC4zbC0wLjcyLC0xLjU0bC0wLjAxLDAuMjFjMCwwLjQ5IC0wLjIsMC45NSAtMC41NSwxLjNjLTAuMzUsMC4zNCAtMC44MiwwLjUzIC0xLjMxLDAuNTJsLTIyLjIsLTAuMjljLTAuNDksLTAuMDEgLTAuOTYsLTAuMjEgLTEuMywtMC41NmMtMC4zNCwtMC4zNSAtMC41MywtMC44MiAtMC41MywtMS4zMWwwLjAxLC0wLjJsLTAuNzcsMS41MmMtMC4wNywwLjE0IC0wLjE5LDAuMjQgLTAuMzQsMC4yOWMtMC4xNCwwLjA1IC0wLjMsMC4wNCAtMC40NCwtMC4wM2wwLDBjLTAuMTQsLTAuMDcgLTAuMjUsLTAuMiAtMC4zLC0wLjM0Yy0wLjA0LC0wLjE1IC0wLjAzLC0wLjMxIDAuMDQsLTAuNDVsMS4xMSwtMi4yMWwtMC42LC0wLjAxbDAuMjcsLTIwLjZsMjguMiwwLjM3bC0wLjI3LDIwLjZsLTAuMjksLTAuMDF6Ii8+JiN4YTsgICAgPHBhdGggc3Ryb2tlLXdpZHRoPSIxLjI2IiBpZD0ic3ZnXzM1IiBmaWxsPSIjOTg5ODk4IiBkPSJtNTkuNzMsMTg3LjY0bC0wLjAyLDEuOGMwLDAuMDYgMC4wMywwLjEyIDAuMDgsMC4xNWMwLjUyLDAuMzMgMy4zOCwyLjEyIDMuMzgsMi4xMmwtMC4wMywxLjY2bC0xLjc0LC0wLjAybC0wLjAxLDEuMTlsLTIuNjMsLTAuMDRsMC4wMSwtMS4xOWwtMS42NiwtMC4wMmwwLjA1LC0zLjE2YzAsLTAuMTQgLTAuMDUsLTAuMjcgLTAuMTUsLTAuMzZjLTAuMDksLTAuMSAtMC4yMiwtMC4xNSAtMC4zNSwtMC4xNWwtMS41OCwtMC4wMmwtMC4wMiwxLjMxbC02LjQ2LC0wLjA5bDAuMDIsLTEuMzFsLTEuNTgsLTAuMDJjLTAuMTQsMCAtMC4yNywwLjA1IC0wLjM2LDAuMTRjLTAuMSwwLjEgLTAuMTYsMC4yMiAtMC4xNiwwLjM2bC0wLjA0LDMuMTZsLTEuNjYsLTAuMDJsLTAuMDEsMS4xOWwtMi42MywtMC4wNGwwLjAxLC0xLjE5bC0xLjc0LC0wLjAybDAuMDIsLTEuNjZzMi45MSwtMS43MyAzLjQzLC0yLjAzYzAuMDUsLTAuMDMgMC4wOSwtMC4wOCAwLjA5LC0wLjE0bDAuMDIsLTEuOGwxNS43MiwwLjJ6Ii8+JiN4YTsgICAgPGcgc3Ryb2tlLXdpZHRoPSIxLjQ0IiBpZD0ic3ZnXzM2Ij4mI3hhOyAgICAgPHJlY3QgeT0iMTE4LjY0IiB4PSIzNC4wMyIgd2lkdGg9IjMuODMiIGlkPSJzdmdfMzciIGhlaWdodD0iOS4zIiBmaWxsPSIjZTVlNWU1Ii8+JiN4YTsgICAgIDxyZWN0IHk9IjEyMC42NCIgeD0iMzQuMDMiIHdpZHRoPSIzLjgzIiBpZD0ic3ZnXzM4IiBoZWlnaHQ9IjUuMzEiIGZpbGw9IiNmNWVjZGUiLz4mI3hhOyAgICAgPHJlY3QgeT0iMTE4LjY0IiB4PSI2OC41MyIgd2lkdGg9IjMuODMiIGlkPSJzdmdfMzkiIGhlaWdodD0iOS4zIiBmaWxsPSIjZTVlNWU1Ii8+JiN4YTsgICAgIDxyZWN0IHk9IjEyMC42NCIgeD0iNjguNTMiIHdpZHRoPSIzLjgzIiBpZD0ic3ZnXzQwIiBoZWlnaHQ9IjUuMzEiIGZpbGw9IiNmNWVjZGUiLz4mI3hhOyAgICA8L2c+JiN4YTsgICAgPGcgaWQ9InN2Z180MSIgZmlsbD0idXJsKCNzbWFsbC1waW4tcGF0dGVybikiPiYjeGE7ICAgICA8cmVjdCB5PSIxMC42NCIgeD0iLTAuOTciIHdpZHRoPSIxMy45IiB0cmFuc2Zvcm09InRyYW5zbGF0ZSg2OSAxMzcpIiBpZD0ic3ZnXzQyIiBoZWlnaHQ9IjMiLz4mI3hhOyAgICAgPHJlY3QgeT0iMTAuNjQiIHg9Ii0wLjk3IiB3aWR0aD0iMTMuOSIgdHJhbnNmb3JtPSJyb3RhdGUoMTgwIDQwLjQzMzIgOTAuODg1MikiIGlkPSJzdmdfNDMiIGhlaWdodD0iMyIvPiYjeGE7ICAgICA8cmVjdCB5PSIxMC42NCIgeD0iLTAuOTciIHdpZHRoPSIxMy45IiB0cmFuc2Zvcm09InJvdGF0ZSg5MCAtMjguMzY2OCAxMjUuMjM1KSIgaWQ9InN2Z180NCIgaGVpZ2h0PSIzIi8+JiN4YTsgICAgIDxyZWN0IHk9IjEwLjY0IiB4PSItMC45NyIgd2lkdGg9IjEzLjkiIHRyYW5zZm9ybT0icm90YXRlKC05MCAxMDguOTMzIDU2LjUzNTIpIiBpZD0ic3ZnXzQ1IiBoZWlnaHQ9IjMiLz4mI3hhOyAgICA8L2c+JiN4YTsgICAgPHJlY3QgeT0iMTUwLjY0IiB4PSI2NS45MyIgd2lkdGg9IjE3LjQiIHN0cm9rZS13aWR0aD0iMS42MSIgaWQ9InN2Z180NiIgaGVpZ2h0PSIxNy40IiBmaWxsPSIjMzMzIi8+JiN4YTsgICAgPHRleHQgeT0iNTQuODgiIHg9Ii04NS41NyIgdHJhbnNmb3JtPSJyb3RhdGUoLTkwIC0wLjk2NjgzOCAxMC42MzUyKSIgaWQ9InN2Z180NyIgZm9udC1zaXplPSIxNXB4IiBmb250LWZhbWlseT0ic2Fucy1zZXJpZiIgZmlsbD0iI2NjY2NjYyI+RVNQMzI8L3RleHQ+JiN4YTsgICAgPHBhdGggc3Ryb2tlLXdpZHRoPSIxcHgiIHN0cm9rZT0iIzZmNjM1MiIgaWQ9InN2Z180OCIgZmlsbD0ibm9uZSIgZD0ibTIzLjMzLDMyLjc0bDAsLTE4LjhsOCwwbDAsMTEuNWwxMC4yLDBsMCwtMTFsOC41LDBsMCwxMC41bDEwLDBsMCwtMTAuNWwxNy44LDBsMCwyMC4yIi8+JiN4YTsgICAgPHBhdGggc3Ryb2tlLXdpZHRoPSIxcHgiIHN0cm9rZT0iIzZmNjM1MiIgaWQ9InN2Z180OSIgZmlsbD0ibm9uZSIgZD0ibTY4LjczLDE0LjhsMCwxOS41Ii8+JiN4YTsgICAgPGcgdHJhbnNmb3JtPSJtYXRyaXgoMCAtMS40OTcxIDEuNDk3MSAwIC01Ljc4NjIgODIuNTU2KSIgaWQ9InN2Z181MCIgZmlsbD0iI2JlMTMxMyI+JiN4YTsgICAgIDxnIGlkPSJzdmdfNTEiIGZpbGw9IiNiZTEzMTMiPiYjeGE7ICAgICAgPGcgdHJhbnNmb3JtPSJtYXRyaXgoMy44MDUyIDAgMCAzLjgwNTIgLTQ4LjgzNiAtMjc3Ljg2KSIgc3Ryb2tlLXdpZHRoPSIwLjI2IiBpZD0ic3ZnXzUyIiBmaWxsPSIjYmUxMzEzIj4mI3hhOyAgICAgICA8cGF0aCBpZD0ic3ZnXzUzIiBkPSJtMTMuNjEsODYuMzRhMC4zOSwwLjM5IDAgMSAxIC0wLjM5LC0wLjM5YTAuMzksMC4zOSAwIDAgMSAwLjM5LDAuMzkiIGNsYXNzPSJjbHMtMSIvPiYjeGE7ICAgICAgIDxwYXRoIGlkPSJzdmdfNTQiIGQ9Im0xNy4wMyw4NS45M2E0LjA2LDQuMDYgMCAwIDAgLTMuNDQsLTMuNDRhMi41NywyLjU3IDAgMCAwIC0wLjU3LDAuNDFsMCwwLjM4YTMuMjIsMy4yMiAwIDAgMSAzLjIyLDMuMjJsMC4zOCwwYTIuNzEsMi43MSAwIDAgMCAwLjQxLC0wLjU3IiBjbGFzcz0iY2xzLTEiLz4mI3hhOyAgICAgICA8cGF0aCBpZD0ic3ZnXzU1IiBkPSJtMTcuMzMsODQuNzRhMi41NSwyLjU1IDAgMCAwIC0yLjU2LC0yLjU0Yy0wLjA5LDAgLTAuMTcsMCAtMC4yNiwwLjAxbC0wLjA2LDAuMTdhNC4zOCw0LjM4IDAgMCAxIDIuNjgsMi42OGwwLjE3LC0wLjA2YzAsLTAuMDkgMC4wMiwtMC4xNyAwLjAyLC0wLjI3IiBjbGFzcz0iY2xzLTEiLz4mI3hhOyAgICAgICA8cGF0aCBpZD0ic3ZnXzU2IiBkPSJtMTQuOCw4Ny43NWEzLjAzLDMuMDMgMCAwIDEgLTMuMDIsLTMuMDFhMy4wMSwzLjAxIDAgMCAxIDAuODgsLTIuMTRsMC4xOCwwLjE2YTIuNzksMi43OSAwIDAgMCAwLDMuOTdhMi43OSwyLjc5IDAgMCAwIDMuOTYsMGwwLjE3LDAuMTZhMywzIDAgMCAxIC0yLjE3LDAuODYiIGNsYXNzPSJjbHMtMSIvPiYjeGE7ICAgICAgIDxwYXRoIGlkPSJzdmdfNTciIGQ9Im0xNC43Nyw4Ni42N2ExLjc2LDEuNzYgMCAwIDAgLTAuNjksLTEuNTZhMS43MiwxLjcyIDAgMCAwIC0wLjg5LC0wLjM2YTAuMTYsMC4xNiAwIDAgMSAtMC4xNCwtMC4xN2EwLjE2LDAuMTYgMCAwIDEgMC4xNywtMC4xNWEyLjA4LDIuMDggMCAwIDEgMS44NiwyLjI3YTEuODEsMS44MSAwIDAgMSAtMC4wNywwLjM2bDAuNDYsMC4xM2EyLjU2LDIuNTYgMCAwIDAgMC40LC0wLjE1YTIuODIsMi44MiAwIDAgMCAwLjA1LC0wLjU0YTIuOTEsMi45MSAwIDAgMCAtMi40NywtMi44OGExLjI4LDEuMjggMCAwIDAgLTAuNDcsMGExLjAxLDEuMDEgMCAwIDAgLTAuNSwwLjMxYTAuOTksMC45OSAwIDAgMCAwLjQ1LDEuNTlhMi4yOSwyLjI5IDAgMCAwIDAuMjQsMC4wNWEwLjkzLDAuOTMgMCAwIDEgMC43OCwwLjkxYTAuOTIsMC45MiAwIDAgMSAtMC4xNSwwLjVsMC4zMiwwLjIxYTIuMzYsMi4zNiAwIDAgMCAwLjQ3LDAuMDhhMS43NCwxLjc0IDAgMCAwIDAuMTgsLTAuNjEiIGNsYXNzPSJjbHMtMSIvPiYjeGE7ICAgICAgPC9nPiYjeGE7ICAgICA8L2c+JiN4YTsgICAgPC9nPiYjeGE7ICAgIDxnIGlkPSJzdmdfNTgiIGZpbGw9IiMwYTAzMDMiPiYjeGE7ICAgICA8Y2lyY2xlIHRyYW5zZm9ybT0icm90YXRlKC05MCAtMC45NjY4MzggMTAuNjM1MikiIHI9IjMuNjUiIGlkPSJzdmdfNTkiIGN5PSIxNy44OCIgY3g9Ii0xNjQuMTMiLz4mI3hhOyAgICAgPGNpcmNsZSB0cmFuc2Zvcm09InJvdGF0ZSgtOTAgLTAuOTY2ODM4IDEwLjYzNTIpIiByPSIzLjY1IiBpZD0ic3ZnXzYwIiBjeT0iMTcuODgiIGN4PSItMTUwLjQzIi8+JiN4YTsgICAgIDxjaXJjbGUgdHJhbnNmb3JtPSJyb3RhdGUoLTkwIC0wLjk2NjgzOCAxMC42MzUyKSIgcj0iMy42NSIgaWQ9InN2Z182MSIgY3k9IjE3Ljg4IiBjeD0iLTEzNi43MiIvPiYjeGE7ICAgICA8Y2lyY2xlIHRyYW5zZm9ybT0icm90YXRlKC05MCAtMC45NjY4MzggMTAuNjM1MikiIHI9IjMuNjUiIGlkPSJzdmdfNjIiIGN5PSIxNy44OCIgY3g9Ii0xMjMuMDIiLz4mI3hhOyAgICAgPGNpcmNsZSB0cmFuc2Zvcm09InJvdGF0ZSgtOTAgLTAuOTY2ODM4IDEwLjYzNTIpIiByPSIzLjY1IiBpZD0ic3ZnXzYzIiBjeT0iMTcuODgiIGN4PSItMTA5LjMyIi8+JiN4YTsgICAgIDxjaXJjbGUgdHJhbnNmb3JtPSJyb3RhdGUoLTkwIC0wLjk2NjgzOCAxMC42MzUyKSIgcj0iMy42NSIgaWQ9InN2Z182NCIgY3k9IjE3Ljg4IiBjeD0iLTk1LjYxIi8+JiN4YTsgICAgIDxjaXJjbGUgdHJhbnNmb3JtPSJyb3RhdGUoLTkwIC0wLjk2NjgzOCAxMC42MzUyKSIgcj0iMy42NSIgaWQ9InN2Z182NSIgY3k9IjE3Ljg4IiBjeD0iLTgxLjkxIi8+JiN4YTsgICAgIDxjaXJjbGUgdHJhbnNmb3JtPSJyb3RhdGUoLTkwIC0wLjk2NjgzOCAxMC42MzUyKSIgcj0iMy42NSIgaWQ9InN2Z182NiIgY3k9IjE3Ljg4IiBjeD0iLTY4LjIxIi8+JiN4YTsgICAgIDxjaXJjbGUgdHJhbnNmb3JtPSJyb3RhdGUoLTkwIC0wLjk2NjgzOCAxMC42MzUyKSIgcj0iMy42NSIgaWQ9InN2Z182NyIgY3k9IjE3Ljg4IiBjeD0iLTU0LjUiLz4mI3hhOyAgICAgPGNpcmNsZSB0cmFuc2Zvcm09InJvdGF0ZSgtOTAgLTAuOTY2ODM4IDEwLjYzNTIpIiByPSIzLjY1IiBpZD0ic3ZnXzY4IiBjeT0iMTcuODgiIGN4PSItNDAuOCIvPiYjeGE7ICAgICA8Y2lyY2xlIHRyYW5zZm9ybT0icm90YXRlKC05MCAtMC45NjY4MzggMTAuNjM1MikiIHI9IjMuNjUiIGlkPSJzdmdfNjkiIGN5PSIxNy44OCIgY3g9Ii0yNy4xIi8+JiN4YTsgICAgIDxjaXJjbGUgdHJhbnNmb3JtPSJyb3RhdGUoLTkwIC0wLjk2NjgzOCAxMC42MzUyKSIgcj0iMy42NSIgaWQ9InN2Z183MCIgY3k9IjEwOS4zMyIgY3g9Ii0xNjQuMTMiLz4mI3hhOyAgICAgPGNpcmNsZSB0cmFuc2Zvcm09InJvdGF0ZSgtOTAgLTAuOTY2ODM4IDEwLjYzNTIpIiByPSIzLjY1IiBpZD0ic3ZnXzcxIiBjeT0iMTA5LjMzIiBjeD0iLTE1MC40MyIvPiYjeGE7ICAgICA8Y2lyY2xlIHRyYW5zZm9ybT0icm90YXRlKC05MCAtMC45NjY4MzggMTAuNjM1MikiIHI9IjMuNjUiIGlkPSJzdmdfNzIiIGN5PSIxMDkuMzMiIGN4PSItMTM2LjcyIi8+JiN4YTsgICAgIDxjaXJjbGUgdHJhbnNmb3JtPSJyb3RhdGUoLTkwIC0wLjk2NjgzOCAxMC42MzUyKSIgcj0iMy42NSIgaWQ9InN2Z183MyIgY3k9IjEwOS4zMyIgY3g9Ii0xMjMuMDIiLz4mI3hhOyAgICAgPGNpcmNsZSB0cmFuc2Zvcm09InJvdGF0ZSgtOTAgLTAuOTY2ODM4IDEwLjYzNTIpIiByPSIzLjY1IiBpZD0ic3ZnXzc0IiBjeT0iMTA5LjMzIiBjeD0iLTEwOS4zMiIvPiYjeGE7ICAgICA8Y2lyY2xlIHRyYW5zZm9ybT0icm90YXRlKC05MCAtMC45NjY4MzggMTAuNjM1MikiIHI9IjMuNjUiIGlkPSJzdmdfNzUiIGN5PSIxMDkuMzMiIGN4PSItOTUuNjEiLz4mI3hhOyAgICAgPGNpcmNsZSB0cmFuc2Zvcm09InJvdGF0ZSgtOTAgLTAuOTY2ODM4IDEwLjYzNTIpIiByPSIzLjY1IiBpZD0ic3ZnXzc2IiBjeT0iMTA5LjMzIiBjeD0iLTgxLjkxIi8+JiN4YTsgICAgIDxjaXJjbGUgdHJhbnNmb3JtPSJyb3RhdGUoLTkwIC0wLjk2NjgzOCAxMC42MzUyKSIgcj0iMy42NSIgaWQ9InN2Z183NyIgY3k9IjEwOS4zMyIgY3g9Ii02OC4yMSIvPiYjeGE7ICAgICA8Y2lyY2xlIHRyYW5zZm9ybT0icm90YXRlKC05MCAtMC45NjY4MzggMTAuNjM1MikiIHI9IjMuNjUiIGlkPSJzdmdfNzgiIGN5PSIxMDkuMzMiIGN4PSItNTQuNSIvPiYjeGE7ICAgICA8Y2lyY2xlIHRyYW5zZm9ybT0icm90YXRlKC05MCAtMC45NjY4MzggMTAuNjM1MikiIHI9IjMuNjUiIGlkPSJzdmdfNzkiIGN5PSIxMDkuMzMiIGN4PSItNDAuOCIvPiYjeGE7ICAgICA8Y2lyY2xlIHRyYW5zZm9ybT0icm90YXRlKC05MCAtMC45NjY4MzggMTAuNjM1MikiIHI9IjMuNjUiIGlkPSJzdmdfODAiIGN5PSIxMDkuMzMiIGN4PSItMjcuMSIvPiYjeGE7ICAgIDwvZz4mI3hhOyAgIDwvZz4mI3hhOyAgPC9nPiYjeGE7IDwvZz4mI3hhOzwvc3ZnPg==;rotation=90;" vertex="1" parent="1">
          <mxGeometry x="59.99999999999999" y="510.29999999999995" width="182.68" height="96" as="geometry" />
        </mxCell>
        <mxCell id="xtMfBei_R9dqipnt-4u9-4" value="" style="shape=image;verticalLabelPosition=bottom;verticalAlign=top;imageAspect=0;aspect=fixed;image=data:image/svg+xml,PHN2ZyB4bWxucz0iaHR0cDovL3d3dy53My5vcmcvMjAwMC9zdmciIHZpZXdCb3g9IjAgMCAzNzMuNTUgMjIzLjAxIj48ZGVmcz48c3R5bGU+LmNscy0xe2ZpbGw6Izc4ZDZjZjt9LmNscy0ye2ZpbGw6I2ZmZjt9LmNscy0ze2ZpbGw6IzU4NTk1Yjt9LmNscy00e2ZpbGw6I2YwZjNmZjt9LmNscy01e2ZpbGw6I2MxYzRjNjt9LmNscy02e2ZpbGw6IzNiM2E0NTt9LmNscy03e2ZpbGw6IzgwODA4Mzt9PC9zdHlsZT48L2RlZnM+PHRpdGxlPnVsdHJhc29uaWNfZGlzdGFuY2Vfc2Vuc29yPC90aXRsZT48ZyBkYXRhLW5hbWU9IkxheWVyIDIiIGlkPSJMYXllcl8yIj48ZyBpZD0iZmxhdCI+PHJlY3Qgcng9IjE3LjkyIiBoZWlnaHQ9IjE2NC41MyIgd2lkdGg9IjM3My41NSIgY2xhc3M9ImNscy0xIi8+PGNpcmNsZSByPSIxMy4xOSIgY3k9IjE5LjkzIiBjeD0iMjAuMDUiIGNsYXNzPSJjbHMtMiIvPjxjaXJjbGUgcj0iMTMuMTkiIGN5PSIxOS45MyIgY3g9IjM1My41IiBjbGFzcz0iY2xzLTIiLz48cmVjdCBoZWlnaHQ9IjM5LjE0IiB3aWR0aD0iMTM5LjQ3IiB5PSIxMjUuNjEiIHg9IjExNy4wNCIgY2xhc3M9ImNscy0zIi8+PHJlY3Qgcng9IjEzLjExIiBoZWlnaHQ9IjI2LjIyIiB3aWR0aD0iNjUuMTUiIHk9IjEzLjIiIHg9IjE1NC4yIiBjbGFzcz0iY2xzLTQiLz48cmVjdCBoZWlnaHQ9Ijc1Ljk3IiB3aWR0aD0iMTIuOTEiIHk9IjE0Ny4wMyIgeD0iMTY0LjkyIiBjbGFzcz0iY2xzLTUiLz48cmVjdCBoZWlnaHQ9Ijc1Ljk3IiB3aWR0aD0iMTIuOTEiIHk9IjE0Ny4wMyIgeD0iMTMzLjYiIGNsYXNzPSJjbHMtNSIvPjxyZWN0IGhlaWdodD0iNzUuOTciIHdpZHRoPSIxMi45MSIgeT0iMTQ3LjAzIiB4PSIxOTYuMjMiIGNsYXNzPSJjbHMtNSIvPjxyZWN0IGhlaWdodD0iNzUuOTciIHdpZHRoPSIxMi45MSIgeT0iMTQ3LjAzIiB4PSIyMjcuNTUiIGNsYXNzPSJjbHMtNSIvPjxjaXJjbGUgcj0iMTMuMTkiIGN5PSIxNDQuNiIgY3g9IjIwLjA1IiBjbGFzcz0iY2xzLTIiLz48Y2lyY2xlIHI9IjEzLjE5IiBjeT0iMTQ0LjYiIGN4PSIzNTMuNSIgY2xhc3M9ImNscy0yIi8+PGNpcmNsZSByPSI2Ny4wOCIgY3k9IjgyLjI2IiBjeD0iODcuMTIiIGNsYXNzPSJjbHMtNCIvPjxjaXJjbGUgcj0iNTMuMDkiIGN5PSI4Mi4yNiIgY3g9Ijg3LjEyIiBjbGFzcz0iY2xzLTYiLz48Y2lyY2xlIHI9IjI2LjM1IiBjeT0iODIuMjYiIGN4PSI4Ny4xMiIgY2xhc3M9ImNscy03Ii8+PGNpcmNsZSByPSI2Ny4wOCIgY3k9IjgyLjI2IiBjeD0iMjg2LjQyIiBjbGFzcz0iY2xzLTQiLz48Y2lyY2xlIHI9IjUzLjA5IiBjeT0iODIuMjYiIGN4PSIyODYuNDIiIGNsYXNzPSJjbHMtNiIvPjxjaXJjbGUgcj0iMjYuMzUiIGN5PSI4Mi4yNiIgY3g9IjI4Ni40MiIgY2xhc3M9ImNscy03Ii8+PC9nPjwvZz48L3N2Zz4=" vertex="1" parent="1">
          <mxGeometry x="20" y="470" width="50.31" height="30" as="geometry" />
        </mxCell>
        <mxCell id="xtMfBei_R9dqipnt-4u9-5" value="" style="shape=image;verticalLabelPosition=bottom;verticalAlign=top;imageAspect=0;aspect=fixed;image=data:image/svg+xml,PHN2ZyB4bWxucz0iaHR0cDovL3d3dy53My5vcmcvMjAwMC9zdmciIGlkPSJzdmc5NjIzIiB2ZXJzaW9uPSIxLjEiIHZpZXdCb3g9IjAgMCA2LjIzMzk3NTQgMTMuMDEzODkxIiBoZWlnaHQ9IjEzLjAxMzg5MW1tIiB3aWR0aD0iNi4yMzM5NzU0bW0iPiYjeGE7ICA8ZGVmcyBpZD0iZGVmczk2MTciLz4mI3hhOyAgJiN4YTsgICAgJiN4YTsgICYjeGE7ICA8bWV0YWRhdGEgaWQ9Im1ldGFkYXRhOTYyMCI+JiN4YTsgICAgJiN4YTsgICAgICAmI3hhOyAgICAgICAgaW1hZ2Uvc3ZnK3htbCYjeGE7ICAgICAgICAmI3hhOyAgICAgICAgJiN4YTsgICAgICAmI3hhOyAgICAmI3hhOyAgPC9tZXRhZGF0YT4mI3hhOyAgPGcgdHJhbnNmb3JtPSJ0cmFuc2xhdGUoLTIwLjAwNTMzMSwtMTcuMDgyOTMzKSIgaWQ9ImxheWVyMSI+JiN4YTsgICAgPGcgaWQ9ImxheWVyMS00IiB0cmFuc2Zvcm09InRyYW5zbGF0ZSgxMy4yOTQ5MzgsNi44MDc1NTAzKSI+JiN4YTsgICAgICA8cmVjdCBzdHlsZT0ib3BhY2l0eToxO2ZpbGw6I2NjY2NjYztmaWxsLW9wYWNpdHk6MTtzdHJva2U6bm9uZTtzdHJva2Utd2lkdGg6MC42OTk5OTk5OTtzdHJva2UtbGluZWNhcDpyb3VuZDtzdHJva2UtbGluZWpvaW46bWl0ZXI7c3Ryb2tlLW1pdGVybGltaXQ6NDtzdHJva2UtZGFzaGFycmF5Om5vbmU7c3Ryb2tlLWRhc2hvZmZzZXQ6MDtzdHJva2Utb3BhY2l0eToxIiBpZD0icmVjdDIxOTUiIHdpZHRoPSIwLjgzNTIxNzI0IiBoZWlnaHQ9IjUuNDEyMjA4MSIgeD0iNy40OTg3MDczIiB5PSIxNy44NzcwNjYiLz4mI3hhOyAgICAgIDxyZWN0IHN0eWxlPSJvcGFjaXR5OjE7ZmlsbDojY2NjY2NjO2ZpbGwtb3BhY2l0eToxO3N0cm9rZTpub25lO3N0cm9rZS13aWR0aDowLjY5OTk5OTk5O3N0cm9rZS1saW5lY2FwOnJvdW5kO3N0cm9rZS1saW5lam9pbjptaXRlcjtzdHJva2UtbWl0ZXJsaW1pdDo0O3N0cm9rZS1kYXNoYXJyYXk6bm9uZTtzdHJva2UtZGFzaG9mZnNldDowO3N0cm9rZS1vcGFjaXR5OjEiIGlkPSJyZWN0MjE5NS0yIiB3aWR0aD0iMC44MzUyMTcyNCIgaGVpZ2h0PSI1LjQxMjIwODEiIHg9IjkuMzg1MTA2MSIgeT0iMTcuODc3MDYyIi8+JiN4YTsgICAgICA8cmVjdCBzdHlsZT0ib3BhY2l0eToxO2ZpbGw6I2NjY2NjYztmaWxsLW9wYWNpdHk6MTtzdHJva2U6bm9uZTtzdHJva2Utd2lkdGg6MC42OTk5OTk5OTtzdHJva2UtbGluZWNhcDpyb3VuZDtzdHJva2UtbGluZWpvaW46bWl0ZXI7c3Ryb2tlLW1pdGVybGltaXQ6NDtzdHJva2UtZGFzaGFycmF5Om5vbmU7c3Ryb2tlLWRhc2hvZmZzZXQ6MDtzdHJva2Utb3BhY2l0eToxIiBpZD0icmVjdDIxOTUtNCIgd2lkdGg9IjAuODM1MjE3MjQiIGhlaWdodD0iNS40MTIyMDgxIiB4PSIxMS4yMDg3NDUiIHk9IjE3Ljg3NzA2MiIvPiYjeGE7ICAgICAgPHJlY3Qgc3R5bGU9Im9wYWNpdHk6MTtmaWxsOiMzMzMzMzM7ZmlsbC1vcGFjaXR5OjE7c3Ryb2tlOiMwMDAwMDA7c3Ryb2tlLXdpZHRoOjAuNTQwOTU4NztzdHJva2UtbGluZWNhcDpyb3VuZDtzdHJva2UtbGluZWpvaW46YmV2ZWw7c3Ryb2tlLW1pdGVybGltaXQ6NDtzdHJva2UtZGFzaGFycmF5Om5vbmU7c3Ryb2tlLWRhc2hvZmZzZXQ6Mjc7c3Ryb2tlLW9wYWNpdHk6MCIgaWQ9InJlY3Q4ODEwLTciIHdpZHRoPSI1LjY5MzAxNjUiIGhlaWdodD0iNy40NTU4ODk3IiB4PSI2Ljk4MDg3MjYiIHk9IjEwLjU0NTg2MiIvPiYjeGE7ICAgICAgPHBhdGggc3R5bGU9Im9wYWNpdHk6MTtmaWxsOiMxYTFhMWE7ZmlsbC1vcGFjaXR5OjE7c3Ryb2tlOiMxYTFhMWE7c3Ryb2tlLXdpZHRoOjAuNDkzNTIxOTk7c3Ryb2tlLWxpbmVjYXA6cm91bmQ7c3Ryb2tlLWxpbmVqb2luOmJldmVsO3N0cm9rZS1taXRlcmxpbWl0OjQ7c3Ryb2tlLWRhc2hhcnJheTpub25lO3N0cm9rZS1kYXNob2Zmc2V0OjI3O3N0cm9rZS1vcGFjaXR5OjEiIGlkPSJwYXRoODgxNC00IiBkPSJNIDguMDAyNjU3LDEzLjgzOTM2NiBBIDEuODQyMTMxLDEuNzA3ODIyOSAwIDAgMSA5Ljg0ODIyOTksMTIuMTUwMjk1IDEuODQyMTMxLDEuNzA3ODIyOSAwIDAgMSAxMS42ODY3NjEsMTMuODQ1OTUzIDEuODQyMTMxLDEuNzA3ODIyOSAwIDAgMSA5Ljg3NDQ2MzIsMTUuNTY1NzE0IDEuODQyMTMxLDEuNzA3ODIyOSAwIDAgMSA4LjAwMzEzMTcsMTMuOTAxMTgiLz4mI3hhOyAgICAgIDx0ZXh0IHhtbDpzcGFjZT0icHJlc2VydmUiIHN0eWxlPSJmb250LXN0eWxlOm5vcm1hbDtmb250LXdlaWdodDpub3JtYWw7Zm9udC1zaXplOjAuNDcyNzM4NjhweDtsaW5lLWhlaWdodDowJTtmb250LWZhbWlseTpzYW5zLXNlcmlmO2xldHRlci1zcGFjaW5nOjBweDt3b3JkLXNwYWNpbmc6MHB4O2ZpbGw6I2ZmZmZmZjtmaWxsLW9wYWNpdHk6MTtzdHJva2U6bm9uZTtzdHJva2Utd2lkdGg6MC4wMzkzOTQ4OXB4O3N0cm9rZS1saW5lY2FwOmJ1dHQ7c3Ryb2tlLWxpbmVqb2luOm1pdGVyO3N0cm9rZS1vcGFjaXR5OjEiIHg9IjcuODAwOTcxNSIgeT0iMTEuNDIwMTYiIGlkPSJ0ZXh0ODgyMi0zIj48dHNwYW4gaWQ9InRzcGFuODgyNC02IiB4PSI3LjgwMDk3MTUiIHk9IjExLjQyMDE2IiBzdHlsZT0iZm9udC1zaXplOjAuODcyOTM0MjhweDtsaW5lLWhlaWdodDoxLjI1O3N0cm9rZS13aWR0aDowLjAzOTM5NDg5cHgiPlRTT1A0ODM2PC90c3Bhbj48L3RleHQ+JiN4YTsgICAgPC9nPiYjeGE7ICA8L2c+JiN4YTs8L3N2Zz4=" vertex="1" parent="1">
          <mxGeometry x="30" y="570" width="19" height="41.17" as="geometry" />
        </mxCell>
        <mxCell id="xtMfBei_R9dqipnt-4u9-6" value="" style="endArrow=classic;html=1;rounded=0;exitX=0.5;exitY=1;exitDx=0;exitDy=0;" edge="1" parent="1" source="xtMfBei_R9dqipnt-4u9-4" target="xtMfBei_R9dqipnt-4u9-3">
          <mxGeometry width="50" height="50" relative="1" as="geometry">
            <mxPoint x="260" y="520" as="sourcePoint" />
            <mxPoint x="310" y="470" as="targetPoint" />
          </mxGeometry>
        </mxCell>
        <mxCell id="xtMfBei_R9dqipnt-4u9-10" value="" style="endArrow=classic;html=1;rounded=0;" edge="1" parent="1" source="xtMfBei_R9dqipnt-4u9-5" target="xtMfBei_R9dqipnt-4u9-3">
          <mxGeometry width="50" height="50" relative="1" as="geometry">
            <mxPoint x="270" y="520" as="sourcePoint" />
            <mxPoint x="320" y="470" as="targetPoint" />
          </mxGeometry>
        </mxCell>
        <mxCell id="xtMfBei_R9dqipnt-4u9-11" value="" style="endArrow=classic;html=1;rounded=0;exitX=0.998;exitY=0.581;exitDx=0;exitDy=0;exitPerimeter=0;" edge="1" parent="1" source="xtMfBei_R9dqipnt-4u9-22">
          <mxGeometry width="50" height="50" relative="1" as="geometry">
            <mxPoint x="430" y="560" as="sourcePoint" />
            <mxPoint x="600" y="560" as="targetPoint" />
          </mxGeometry>
        </mxCell>
        <mxCell id="xtMfBei_R9dqipnt-4u9-12" value="" style="image;points=[];aspect=fixed;html=1;align=center;shadow=0;dashed=0;image=img/lib/allied_telesis/storage/Datacenter_Server_Rack_EoR.svg;" vertex="1" parent="1">
          <mxGeometry x="601" y="471.6" width="85.8" height="173.4" as="geometry" />
        </mxCell>
        <mxCell id="xtMfBei_R9dqipnt-4u9-15" value="Reads from the sensor" style="text;html=1;align=center;verticalAlign=middle;resizable=0;points=[];autosize=1;strokeColor=none;fillColor=none;fontFamily=Montserrat;fontSource=https%3A%2F%2Ffonts.googleapis.com%2Fcss%3Ffamily%3DMontserrat;fontSize=9;" vertex="1" parent="1">
          <mxGeometry x="20" y="625" width="120" height="20" as="geometry" />
        </mxCell>
        <mxCell id="xtMfBei_R9dqipnt-4u9-16" value="&lt;font style=&quot;font-size: 10px;&quot; data-font-src=&quot;https://fonts.googleapis.com/css?family=Montserrat&quot; face=&quot;Montserrat&quot;&gt;Call to the server if a car is detected&lt;/font&gt;" style="text;html=1;align=center;verticalAlign=middle;resizable=0;points=[];autosize=1;strokeColor=none;fillColor=none;" vertex="1" parent="1">
          <mxGeometry x="80" y="430" width="200" height="30" as="geometry" />
        </mxCell>
        <mxCell id="xtMfBei_R9dqipnt-4u9-17" value="&lt;font style=&quot;font-size: 10px;&quot; data-font-src=&quot;https://fonts.googleapis.com/css?family=Montserrat&quot; face=&quot;Montserrat&quot;&gt;/car-detected&lt;/font&gt;" style="text;html=1;align=center;verticalAlign=middle;resizable=0;points=[];autosize=1;strokeColor=none;fillColor=none;" vertex="1" parent="1">
          <mxGeometry x="511" y="530" width="90" height="30" as="geometry" />
        </mxCell>
        <mxCell id="xtMfBei_R9dqipnt-4u9-18" value="&lt;font face=&quot;Montserrat&quot;&gt;&lt;span style=&quot;font-size: 10px;&quot;&gt;HTTP - POST&lt;/span&gt;&lt;/font&gt;" style="text;html=1;align=center;verticalAlign=middle;resizable=0;points=[];autosize=1;strokeColor=none;fillColor=none;" vertex="1" parent="1">
          <mxGeometry x="460" y="570" width="90" height="30" as="geometry" />
        </mxCell>
        <mxCell id="xtMfBei_R9dqipnt-4u9-21" value="" style="endArrow=classic;html=1;rounded=0;" edge="1" parent="1">
          <mxGeometry width="50" height="50" relative="1" as="geometry">
            <mxPoint x="200" y="560" as="sourcePoint" />
            <mxPoint x="330" y="560" as="targetPoint" />
          </mxGeometry>
        </mxCell>
        <mxCell id="xtMfBei_R9dqipnt-4u9-22" value="" style="shape=image;verticalLabelPosition=bottom;verticalAlign=top;imageAspect=0;aspect=fixed;image=data:image/svg+xml,PHN2ZyB4bWxuczp4bGluaz0iaHR0cDovL3d3dy53My5vcmcvMTk5OS94bGluayIgeG1sbnM9Imh0dHA6Ly93d3cudzMub3JnLzIwMDAvc3ZnIiB4bWw6c3BhY2U9InByZXNlcnZlIiBzdHlsZT0iZW5hYmxlLWJhY2tncm91bmQ6bmV3IDAgMCAxMjIuODggODYuMjYiIHZpZXdCb3g9IjAgMCAxMjIuODggODYuMjYiIHk9IjBweCIgeD0iMHB4IiBpZD0iTGF5ZXJfMSIgdmVyc2lvbj0iMS4xIj48c3R5bGUgdHlwZT0idGV4dC9jc3MiPi5zdDB7ZmlsbC1ydWxlOmV2ZW5vZGQ7Y2xpcC1ydWxlOmV2ZW5vZGQ7fTwvc3R5bGU+PGc+PHBhdGggZD0iTTQ4LjQ0LDU0Ljk0YzEuNTksMCwyLjg3LDEuMjksMi44NywyLjg3YzAsMS41OS0xLjI5LDIuODctMi44NywyLjg3cy0yLjg3LTEuMjktMi44Ny0yLjg3IEM0NS41Nyw1Ni4yMiw0Ni44NSw1NC45NCw0OC40NCw1NC45NEw0OC40NCw1NC45NHogTTg0LjQxLDkuMjNjLTAuNTQsMC40OC0xLjM1LDAuNDItMS44My0wLjFjLTAuNDgtMC41NC0wLjQyLTEuMzUsMC4xLTEuODMgQzg4LjIyLDIuNCw5NC4wNy0wLjEsMTAwLDBjNS43OCwwLjEsMTEuNTUsMi42NiwxNy4wOSw3Ljg3YzAuNTIsMC40OSwwLjU1LDEuMzEsMC4wNiwxLjgzYy0wLjQ5LDAuNTItMS4zMSwwLjU1LTEuODMsMC4wNiBDMTEwLjI3LDUsMTA1LjA4LDIuNjgsOTkuOTYsMi41OUM5NC42OSwyLjUsODkuNDQsNC43OCw4NC4zOSw5LjI1TDg0LjQxLDkuMjNMODQuNDEsOS4yM3ogTTcuMjcsOS4yMyBjLTAuNTQsMC40OC0xLjM1LDAuNDItMS44My0wLjFDNC45Nyw4LjU5LDUuMDMsNy43Nyw1LjU1LDcuM0MxMS4wOCwyLjQsMTYuOTMtMC4xLDIyLjg3LDBjNS43OCwwLjEsMTEuNTUsMi42NiwxNy4wOSw3Ljg3IGMwLjUyLDAuNDksMC41NSwxLjMxLDAuMDYsMS44M2MtMC40OSwwLjUyLTEuMzEsMC41NS0xLjgzLDAuMDZDMzMuMTQsNSwyNy45NSwyLjY4LDIyLjgzLDIuNTlDMTcuNTYsMi41LDEyLjMsNC43OCw3LjI2LDkuMjUgTDcuMjcsOS4yM0w3LjI3LDkuMjN6IE05OS44OSwyMC4xM2MyLjExLDAsMy44NCwxLjcxLDMuODQsMy44NGMwLDEuMzItMC42NywyLjUtMS43LDMuMTl2MTQuODhoMTcuNDljMC45MywwLDEuNzcsMC4zOCwyLjM4LDAuOTkgYzAuNjEsMC42MSwwLjk5LDEuNDUsMC45OSwyLjM4djMxLjY1YzAsMC45My0wLjM4LDEuNzctMC45OSwyLjM4Yy0wLjYxLDAuNjEtMS40NSwwLjk5LTIuMzgsMC45OWgtMTAuNzR2NS44NEg5MC45OXYtNS44NEgzMS4yNSB2NS44NEgxMy40NnYtNS44NEgzLjM3Yy0wLjkzLDAtMS43Ny0wLjM4LTIuMzgtMC45OUMwLjM4LDc4LjgyLDAsNzcuOTgsMCw3Ny4wNVY0NS40YzAtMC45MiwwLjM4LTEuNzYsMC45OS0yLjM3bDAsMGwwLDAgYzAuNjEtMC42MSwxLjQ1LTAuOTksMi4zOC0wLjk5SDIwLjhWMjcuMjdjLTEuMTMtMC42Ny0xLjg5LTEuOS0xLjg5LTMuMzFjMC0yLjExLDEuNzEtMy44NCwzLjg0LTMuODRjMi4xMSwwLDMuODQsMS43MSwzLjg0LDMuODQgYzAsMS4zNi0wLjcxLDIuNTUtMS43NywzLjI0djE0LjgzaDczLjE5VjI3LjMyYy0xLjE3LTAuNjYtMS45Ni0xLjkxLTEuOTYtMy4zNUM5Ni4wNSwyMS44NSw5Ny43NiwyMC4xMyw5OS44OSwyMC4xM0w5OS44OSwyMC4xM3ogTTkxLjI3LDE2LjA4Yy0wLjU1LDAuNDUtMS4zNywwLjM3LTEuODItMC4xOWMtMC40NS0wLjU1LTAuMzctMS4zNywwLjE5LTEuODJjMy4yMy0yLjYzLDYuNzQtMy45OSwxMC4yOC00IGMzLjQ3LTAuMDIsNi45NSwxLjI4LDEwLjIzLDMuOTRjMC41NSwwLjQ1LDAuNjQsMS4yNywwLjE5LDEuODJjLTAuNDUsMC41NS0xLjI3LDAuNjQtMS44MiwwLjE5Yy0yLjgtMi4yOC01LjcyLTMuMzgtOC41OS0zLjM4IGMtMi45NSwwLjAxLTUuODksMS4xOC04LjY2LDMuNDJMOTEuMjcsMTYuMDhMOTEuMjcsMTYuMDh6IE0xNC4xMywxNi4wOGMtMC41NSwwLjQ1LTEuMzcsMC4zNy0xLjgyLTAuMTkgYy0wLjQ1LTAuNTUtMC4zNy0xLjM3LDAuMTktMS44MmMzLjIzLTIuNjMsNi43NC0zLjk5LDEwLjI4LTRjMy40Ny0wLjAyLDYuOTUsMS4yOCwxMC4yMywzLjk0YzAuNTUsMC40NSwwLjY0LDEuMjcsMC4xOSwxLjgyIGMtMC40NSwwLjU1LTEuMjcsMC42NC0xLjgyLDAuMTljLTIuOC0yLjI4LTUuNzItMy4zOC04LjU5LTMuMzhjLTIuOTUsMC4wMS01Ljg5LDEuMTgtOC42NiwzLjQyTDE0LjEzLDE2LjA4TDE0LjEzLDE2LjA4eiBNMTE4Ljg2LDQ2LjA2SDQuMDJWNzYuNGgxMTQuODRWNDYuMDZMMTE4Ljg2LDQ2LjA2eiBNMTIuMzYsNTUuMjZoMTEuMTdWNjFIMTIuMzZWNTUuMjZMMTIuMzYsNTUuMjZ6IE0zNi40Nyw1NC45NCBjMS41OSwwLDIuODcsMS4yOSwyLjg3LDIuODdjMCwxLjU5LTEuMjksMi44Ny0yLjg3LDIuODdjLTEuNTksMC0yLjg3LTEuMjktMi44Ny0yLjg3QzMzLjU5LDU2LjIyLDM0Ljg4LDU0Ljk0LDM2LjQ3LDU0Ljk0IEwzNi40Nyw1NC45NHoiIGNsYXNzPSJzdDAiLz48L2c+PC9zdmc+" vertex="1" parent="1">
          <mxGeometry x="340" y="526" width="83.6" height="58.46" as="geometry" />
        </mxCell>
        <mxCell id="xtMfBei_R9dqipnt-4u9-24" value="&lt;font face=&quot;Montserrat&quot;&gt;&lt;span style=&quot;font-size: 10px;&quot;&gt;Wifi&lt;/span&gt;&lt;/font&gt;" style="text;html=1;align=center;verticalAlign=middle;resizable=0;points=[];autosize=1;strokeColor=none;fillColor=none;" vertex="1" parent="1">
          <mxGeometry x="242.68" y="570" width="40" height="30" as="geometry" />
        </mxCell>
        <mxCell id="xtMfBei_R9dqipnt-4u9-25" value="&lt;font face=&quot;Montserrat&quot;&gt;&lt;span style=&quot;font-size: 10px;&quot;&gt;Parking administration&lt;br&gt;Hotspot&lt;br&gt;&lt;/span&gt;&lt;/font&gt;" style="text;html=1;align=center;verticalAlign=middle;resizable=0;points=[];autosize=1;strokeColor=none;fillColor=none;" vertex="1" parent="1">
          <mxGeometry x="311.8" y="491" width="140" height="40" as="geometry" />
        </mxCell>
      </root>
    </mxGraphModel>
  </diagram>
</mxfile>
